<svg width="26" height="26" viewBox="0 0 26 26" fill="none" xmlns="http://www.w3.org/2000/svg">
<path d="M11.6856 7.72822C11.8861 7.92769 11.9827 8.16909 11.9755 8.45245C11.9676 8.7358 11.8639 8.97775 11.6645 9.17828L8.84705 12.0109L19.997 11.9809C20.2803 11.9802 20.5183 12.0755 20.7108 12.267C20.9026 12.4578 20.9989 12.6949 20.9997 12.9782C21.0004 13.2616 20.9054 13.4995 20.7146 13.692C20.5231 13.8839 20.2857 13.9802 20.0024 13.9809L8.85241 14.0108L11.7101 16.8532C11.9106 17.0527 12.0112 17.2901 12.012 17.5654C12.0127 17.84 11.9133 18.0776 11.7139 18.2782C11.5144 18.4787 11.277 18.5794 11.0017 18.5801C10.727 18.5808 10.4894 18.4815 10.2889 18.282L5.70162 13.7193C5.60135 13.6196 5.53006 13.5114 5.48775 13.3949C5.4461 13.2783 5.4251 13.1534 5.42474 13.02C5.42438 12.8867 5.44471 12.7617 5.48573 12.6449C5.52742 12.5281 5.59813 12.4196 5.69786 12.3193L10.2855 7.70698C10.4683 7.52316 10.6971 7.43087 10.9718 7.43014C11.2471 7.4294 11.485 7.52876 11.6856 7.72822V7.72822Z" fill="white"/>
</svg>
