<svg width="100" height="96" viewBox="0 0 100 96" fill="none" xmlns="http://www.w3.org/2000/svg">
<path d="M55.4165 69.0999C54.5832 68.2999 54.1832 67.3333 54.2165 66.1999C54.2526 65.0666 54.6873 64.0999 55.5207 63.2999L67.2915 52H20.8332C19.6526 52 18.6623 51.6159 17.8623 50.8479C17.0651 50.0826 16.6665 49.1333 16.6665 48C16.6665 46.8666 17.0651 45.9159 17.8623 45.1479C18.6623 44.3826 19.6526 44 20.8332 44H67.2915L55.4165 32.5999C54.5832 31.7999 54.1665 30.8493 54.1665 29.7479C54.1665 28.6493 54.5832 27.7 55.4165 26.9C56.2498 26.1 57.2401 25.7 58.3873 25.7C59.5318 25.7 60.5207 26.1 61.354 26.9L80.4165 45.2C80.8332 45.6 81.129 46.0333 81.304 46.5C81.4762 46.9666 81.5623 47.4666 81.5623 48C81.5623 48.5333 81.4762 49.0333 81.304 49.5C81.129 49.9666 80.8332 50.3999 80.4165 50.7999L61.2498 69.1999C60.4859 69.9333 59.5318 70.3 58.3873 70.3C57.2401 70.3 56.2498 69.8999 55.4165 69.0999V69.0999Z" fill="white"/>
</svg>
